# Blender v2.80 (sub 75) OBJ File: 'hjc6112e.blend'
# www.blender.org
mtllib hjc6112e.mtl
o topBarOutLeft
v -1.187500 1.562501 -6.000000
v -1.250000 1.562501 -6.000000
v -1.250000 2.000001 -6.000000
v -1.187500 2.000001 -6.000000
v -1.250000 1.562499 6.250000
v -1.187500 1.562499 6.250000
v -1.187500 1.999999 6.250000
v -1.250000 1.999999 6.250000
vt 0.326667 0.545833
vt 0.328333 0.545833
vt 0.328333 0.560417
vt 0.326667 0.560417
vt 0.655000 0.545833
vt 0.656667 0.545833
vt 0.656667 0.560417
vt 0.655000 0.560417
vt 0.328333 0.968750
vt 0.326667 0.968750
vt 0.328333 0.560417
vt 0.330000 0.560417
vt 0.330000 0.968750
vt 0.328333 0.968750
vt 0.000000 0.545833
vt 0.000000 0.560417
vn 0.0000 0.0000 -1.0000
vn 0.0000 0.0000 1.0000
vn 0.0000 1.0000 0.0000
vn 0.0000 -1.0000 -0.0000
vn 1.0000 0.0000 0.0000
vn -1.0000 0.0000 0.0000
usemtl Default_OBJ
s off
f 1/1/1 2/2/1 3/3/1 4/4/1
f 5/5/2 6/6/2 7/7/2 8/8/2
f 4/4/3 3/3/3 8/9/3 7/10/3
f 6/11/4 5/12/4 2/13/4 1/14/4
f 6/15/5 1/1/5 4/4/5 7/16/5
f 2/2/6 5/5/6 8/8/6 3/3/6
o bottom
v 1.187500 -0.437499 -6.000000
v -1.187500 -0.437499 -6.000000
v -1.187500 -0.374999 -6.000000
v 1.187500 -0.374999 -6.000000
v -1.187500 -0.437501 6.250000
v 1.187500 -0.437501 6.250000
v 1.187500 -0.375001 6.250000
v -1.187500 -0.375001 6.250000
vt 0.426667 0.589583
vt 0.490000 0.589583
vt 0.490000 0.591667
vt 0.426667 0.591667
vt 0.816667 0.589583
vt 0.880000 0.589583
vt 0.880000 0.591667
vt 0.816667 0.591667
vt 0.490000 1.000000
vt 0.426667 1.000000
vt 0.490000 0.591667
vt 0.553333 0.591667
vt 0.553333 1.000000
vt 0.490000 1.000000
vt 0.100000 0.589583
vt 0.100000 0.591667
vn 0.0000 0.0000 -1.0000
vn 0.0000 0.0000 1.0000
vn 0.0000 1.0000 0.0000
vn 0.0000 -1.0000 -0.0000
vn 1.0000 0.0000 0.0000
vn -1.0000 0.0000 0.0000
usemtl Default_OBJ
s off
f 9/17/7 10/18/7 11/19/7 12/20/7
f 13/21/8 14/22/8 15/23/8 16/24/8
f 12/20/9 11/19/9 16/25/9 15/26/9
f 14/27/10 13/28/10 10/29/10 9/30/10
f 14/31/11 9/17/11 12/20/11 15/32/11
f 10/18/12 13/21/12 16/24/12 11/19/12
o back
v 1.250000 -0.500001 6.250000
v -1.250000 -0.500001 6.250000
v -1.250000 1.999999 6.250000
v 1.250000 1.999999 6.250000
v -1.250000 -0.500001 6.312500
v 1.250000 -0.500001 6.312500
v 1.250000 1.999999 6.312500
v -1.250000 1.999999 6.312500
vt 0.001667 0.727083
vt 0.068333 0.727083
vt 0.068333 0.810417
vt 0.001667 0.810417
vt 0.070000 0.727083
vt 0.136667 0.727083
vt 0.136667 0.810417
vt 0.070000 0.810417
vt 0.068333 0.812500
vt 0.001667 0.812500
vt 0.068333 0.810417
vt 0.135000 0.810417
vt 0.135000 0.812500
vt 0.068333 0.812500
vt 0.000000 0.727083
vt 0.000000 0.810417
vn 0.0000 0.0000 -1.0000
vn 0.0000 -0.0000 1.0000
vn 0.0000 1.0000 0.0000
vn 0.0000 -1.0000 0.0000
vn 1.0000 0.0000 0.0000
vn -1.0000 0.0000 0.0000
usemtl Default_OBJ
s off
f 17/33/13 18/34/13 19/35/13 20/36/13
f 21/37/14 22/38/14 23/39/14 24/40/14
f 20/36/15 19/35/15 24/41/15 23/42/15
f 22/43/16 21/44/16 18/45/16 17/46/16
f 22/47/17 17/33/17 20/36/17 23/48/17
f 18/34/18 21/37/18 24/40/18 19/35/18
o topBarOutRight
v 1.250000 1.562501 -6.000000
v 1.187500 1.562501 -6.000000
v 1.187500 2.000001 -6.000000
v 1.250000 2.000001 -6.000000
v 1.187500 1.562499 6.250000
v 1.250000 1.562499 6.250000
v 1.250000 1.999999 6.250000
v 1.187500 1.999999 6.250000
vt 0.326667 0.545833
vt 0.328333 0.545833
vt 0.328333 0.560417
vt 0.326667 0.560417
vt 0.655000 0.545833
vt 0.656667 0.545833
vt 0.656667 0.560417
vt 0.655000 0.560417
vt 0.328333 0.968750
vt 0.326667 0.968750
vt 0.328333 0.560417
vt 0.330000 0.560417
vt 0.330000 0.968750
vt 0.328333 0.968750
vt 0.000000 0.545833
vt 0.000000 0.560417
vn 0.0000 0.0000 -1.0000
vn 0.0000 0.0000 1.0000
vn 0.0000 1.0000 0.0000
vn 0.0000 -1.0000 -0.0000
vn 1.0000 0.0000 0.0000
vn -1.0000 0.0000 0.0000
usemtl Default_OBJ
s off
f 25/49/19 26/50/19 27/51/19 28/52/19
f 29/53/20 30/54/20 31/55/20 32/56/20
f 28/52/21 27/51/21 32/57/21 31/58/21
f 30/59/22 29/60/22 26/61/22 25/62/22
f 30/63/23 25/49/23 28/52/23 31/64/23
f 26/50/24 29/53/24 32/56/24 27/51/24
o DBackSticker
v 1.125000 0.124999 6.318750
v 0.875000 0.124999 6.318750
v 0.875000 0.374999 6.318750
v 1.125000 0.374999 6.318750
vt 0.000000 0.991667
vt 0.006667 0.991667
vt 0.006667 1.000000
vt 0.000000 1.000000
vn 0.0000 0.0000 -1.0000
usemtl Default_OBJ
s off
f 33/65/25 34/66/25 35/67/25 36/68/25
o leftDoor
v 1.218750 -0.687500 -1.000000
v 1.156250 -0.687500 -1.000000
v 1.156250 1.562500 -1.000000
v 1.218750 1.562500 -1.000000
v 1.156250 -0.687500 -0.000000
v 1.218750 -0.687500 -0.000000
v 1.218750 1.562500 0.000000
v 1.156250 1.562500 0.000000
vt 0.176667 0.891667
vt 0.178333 0.891667
vt 0.178333 0.966667
vt 0.176667 0.966667
vt 0.205000 0.891667
vt 0.206667 0.891667
vt 0.206667 0.966667
vt 0.205000 0.966667
vt 0.178333 1.000000
vt 0.176667 1.000000
vt 0.178333 0.966667
vt 0.180000 0.966667
vt 0.180000 1.000000
vt 0.178333 1.000000
vt 0.150000 0.891667
vt 0.150000 0.966667
vn 0.0000 0.0000 -1.0000
vn 0.0000 -0.0000 1.0000
vn 0.0000 1.0000 0.0000
vn 0.0000 -1.0000 -0.0000
vn 1.0000 0.0000 0.0000
vn -1.0000 -0.0000 0.0000
usemtl Default_OBJ
s off
f 37/69/26 38/70/26 39/71/26 40/72/26
f 41/73/27 42/74/27 43/75/27 44/76/27
f 40/72/28 39/71/28 44/77/28 43/78/28
f 42/79/29 41/80/29 38/81/29 37/82/29
f 42/83/30 37/69/30 40/72/30 43/84/30
f 38/70/31 41/73/31 44/76/31 39/71/31
o top
v 1.187500 1.937501 -6.000000
v -1.187500 1.937501 -6.000000
v -1.187500 2.000001 -6.000000
v 1.187500 2.000001 -6.000000
v -1.187500 1.937499 6.250000
v 1.187500 1.937499 6.250000
v 1.187500 1.999999 6.250000
v -1.187500 1.999999 6.250000
vt 0.426667 0.589583
vt 0.490000 0.589583
vt 0.490000 0.591667
vt 0.426667 0.591667
vt 0.816667 0.589583
vt 0.880000 0.589583
vt 0.880000 0.591667
vt 0.816667 0.591667
vt 0.490000 1.000000
vt 0.426667 1.000000
vt 0.490000 0.591667
vt 0.553333 0.591667
vt 0.553333 1.000000
vt 0.490000 1.000000
vt 0.100000 0.589583
vt 0.100000 0.591667
vn 0.0000 0.0000 -1.0000
vn 0.0000 0.0000 1.0000
vn 0.0000 1.0000 0.0000
vn 0.0000 -1.0000 -0.0000
vn 1.0000 0.0000 0.0000
vn -1.0000 0.0000 0.0000
usemtl Default_OBJ
s off
f 45/85/32 46/86/32 47/87/32 48/88/32
f 49/89/33 50/90/33 51/91/33 52/92/33
f 48/88/34 47/87/34 52/93/34 51/94/34
f 50/95/35 49/96/35 46/97/35 45/98/35
f 50/99/36 45/85/36 48/88/36 51/100/36
f 46/86/37 49/89/37 52/92/37 47/87/37
o door1
v 1.218750 -0.687499 -6.000000
v 1.156250 -0.687499 -6.000000
v 1.156250 1.562501 -6.000000
v 1.218750 1.562501 -6.000000
v 1.156250 -0.687499 -5.000000
v 1.218750 -0.687499 -5.000000
v 1.218750 1.562501 -5.000000
v 1.156250 1.562501 -5.000000
vt 0.176667 0.891667
vt 0.178333 0.891667
vt 0.178333 0.966667
vt 0.176667 0.966667
vt 0.205000 0.891667
vt 0.206667 0.891667
vt 0.206667 0.966667
vt 0.205000 0.966667
vt 0.178333 1.000000
vt 0.176667 1.000000
vt 0.178333 0.966667
vt 0.180000 0.966667
vt 0.180000 1.000000
vt 0.178333 1.000000
vt 0.150000 0.891667
vt 0.150000 0.966667
vn 0.0000 0.0000 -1.0000
vn 0.0000 -0.0000 1.0000
vn 0.0000 1.0000 0.0000
vn 0.0000 -1.0000 -0.0000
vn 1.0000 0.0000 0.0000
vn -1.0000 0.0000 0.0000
usemtl Default_OBJ
s off
f 53/101/38 54/102/38 55/103/38 56/104/38
f 57/105/39 58/106/39 59/107/39 60/108/39
f 56/104/40 55/103/40 60/109/40 59/110/40
f 58/111/41 57/112/41 54/113/41 53/114/41
f 58/115/42 53/101/42 56/104/42 59/116/42
f 54/102/43 57/105/43 60/108/43 55/103/43
o DBack
v 1.187500 1.499999 6.368751
v -1.187500 1.499999 6.368751
v -1.187500 1.812499 6.368751
v 1.187500 1.812499 6.368751
vt 0.000000 0.989583
vt 0.063333 0.989583
vt 0.063333 1.000000
vt 0.000000 1.000000
vn 0.0000 0.0000 -1.0000
usemtl Default_OBJ
s off
f 61/117/44 62/118/44 63/119/44 64/120/44
o DFrontSticker
v 1.125000 0.125001 -6.256250
v 0.875000 0.125001 -6.256250
v 0.875000 0.375001 -6.256250
v 1.125000 0.375001 -6.256250
vt 0.000000 0.991667
vt 0.006667 0.991667
vt 0.006667 1.000000
vt 0.000000 1.000000
vn 0.0000 0.0000 -1.0000
usemtl Default_OBJ
s off
f 65/121/45 66/122/45 67/123/45 68/124/45
o DSide1
v 1.256250 -0.050000 -3.062500
v 1.256250 -0.049999 -4.625000
v 1.256250 0.325001 -4.625000
v 1.256250 0.325000 -3.062500
vt 0.582803 0.836625
vt 0.999059 0.836625
vt 0.999059 0.961501
vt 0.582803 0.961501
vn 1.0000 0.0000 0.0000
usemtl Default_OBJ
s off
f 69/125/46 70/126/46 71/127/46 72/128/46
o front
v 1.250000 -0.624999 -6.250000
v -1.250000 -0.624999 -6.250000
v -1.250000 2.000001 -6.250000
v 1.250000 2.000001 -6.250000
v -1.250000 -0.624999 -6.000000
v 1.250000 -0.624999 -6.000000
v 1.250000 2.000001 -6.000000
v -1.250000 2.000001 -6.000000
vt 0.006667 0.904167
vt 0.073333 0.904167
vt 0.073333 0.991667
vt 0.006667 0.991667
vt 0.080000 0.904167
vt 0.146667 0.904167
vt 0.146667 0.991667
vt 0.080000 0.991667
vt 0.073333 1.000000
vt 0.006667 1.000000
vt 0.073333 0.991667
vt 0.140000 0.991667
vt 0.140000 1.000000
vt 0.073333 1.000000
vt 0.000000 0.904167
vt 0.000000 0.991667
vn 0.0000 0.0000 -1.0000
vn 0.0000 -0.0000 1.0000
vn 0.0000 1.0000 0.0000
vn 0.0000 -1.0000 -0.0000
vn 1.0000 0.0000 0.0000
vn -1.0000 0.0000 0.0000
usemtl Default_OBJ
s off
f 73/129/47 74/130/47 75/131/47 76/132/47
f 77/133/48 78/134/48 79/135/48 80/136/48
f 76/132/49 75/131/49 80/137/49 79/138/49
f 78/139/50 77/140/50 74/141/50 73/142/50
f 78/143/51 73/129/51 76/132/51 79/144/51
f 74/130/52 77/133/52 80/136/52 75/131/52
o rightDoor
v 1.218750 -0.687500 -0.000000
v 1.156250 -0.687500 -0.000000
v 1.156250 1.562500 0.000000
v 1.218750 1.562500 0.000000
v 1.156250 -0.687500 1.000000
v 1.218750 -0.687500 1.000000
v 1.218750 1.562500 1.000000
v 1.156250 1.562500 1.000000
vt 0.260000 0.891667
vt 0.261667 0.891667
vt 0.261667 0.966667
vt 0.260000 0.966667
vt 0.288333 0.891667
vt 0.290000 0.891667
vt 0.290000 0.966667
vt 0.288333 0.966667
vt 0.261667 1.000000
vt 0.260000 1.000000
vt 0.261667 0.966667
vt 0.263333 0.966667
vt 0.263333 1.000000
vt 0.261667 1.000000
vt 0.233333 0.891667
vt 0.233333 0.966667
vn 0.0000 0.0000 -1.0000
vn 0.0000 -0.0000 1.0000
vn 0.0000 1.0000 0.0000
vn 0.0000 -1.0000 -0.0000
vn 1.0000 0.0000 0.0000
vn -1.0000 0.0000 0.0000
usemtl Default_OBJ
s off
f 81/145/53 82/146/53 83/147/53 84/148/53
f 85/149/54 86/150/54 87/151/54 88/152/54
f 84/148/55 83/147/55 88/153/55 87/154/55
f 86/155/56 85/156/56 82/157/56 81/158/56
f 86/159/57 81/145/57 84/148/57 87/160/57
f 82/146/58 85/149/58 88/152/58 83/147/58
o rightWall1
v 1.250000 -0.687499 -5.000000
v 1.187500 -0.687499 -5.000000
v 1.187500 1.562501 -5.000000
v 1.250000 1.562501 -5.000000
v 1.187500 -0.687500 -0.937500
v 1.250000 -0.687500 -0.937500
v 1.250000 1.562500 -0.937500
v 1.187500 1.562500 -0.937500
vt 0.508333 0.268750
vt 0.510000 0.268750
vt 0.510000 0.343750
vt 0.508333 0.343750
vt 0.618333 0.268750
vt 0.620000 0.268750
vt 0.620000 0.343750
vt 0.618333 0.343750
vt 0.510000 0.479167
vt 0.508333 0.479167
vt 0.510000 0.343750
vt 0.511667 0.343750
vt 0.511667 0.479167
vt 0.510000 0.479167
vt 0.400000 0.268750
vt 0.400000 0.343750
vn 0.0000 0.0000 -1.0000
vn 0.0000 -0.0000 1.0000
vn 0.0000 1.0000 0.0000
vn 0.0000 -1.0000 -0.0000
vn 1.0000 0.0000 0.0000
vn -1.0000 0.0000 0.0000
usemtl Default_OBJ
s off
f 89/161/59 90/162/59 91/163/59 92/164/59
f 93/165/60 94/166/60 95/167/60 96/168/60
f 92/164/61 91/163/61 96/169/61 95/170/61
f 94/171/62 93/172/62 90/173/62 89/174/62
f 94/175/63 89/161/63 92/164/63 95/176/63
f 90/162/64 93/165/64 96/168/64 91/163/64
o rightWall2
v 1.250000 -0.687500 1.000000
v 1.187500 -0.687500 1.000000
v 1.187500 1.562500 1.000000
v 1.250000 1.562500 1.000000
v 1.187500 -0.687501 6.250000
v 1.250000 -0.687501 6.250000
v 1.250000 1.562499 6.250000
v 1.187500 1.562499 6.250000
vt 0.140000 0.270833
vt 0.141667 0.270833
vt 0.141667 0.345833
vt 0.140000 0.345833
vt 0.281667 0.270833
vt 0.283333 0.270833
vt 0.283333 0.345833
vt 0.281667 0.345833
vt 0.141667 0.520833
vt 0.140000 0.520833
vt 0.141667 0.345833
vt 0.143333 0.345833
vt 0.143333 0.520833
vt 0.141667 0.520833
vt 0.000000 0.270833
vt 0.000000 0.345833
vn 0.0000 0.0000 -1.0000
vn 0.0000 -0.0000 1.0000
vn 0.0000 1.0000 0.0000
vn 0.0000 -1.0000 -0.0000
vn 1.0000 0.0000 0.0000
vn -1.0000 0.0000 0.0000
usemtl Default_OBJ
s off
f 97/177/65 98/178/65 99/179/65 100/180/65
f 101/181/66 102/182/66 103/183/66 104/184/66
f 100/180/67 99/179/67 104/185/67 103/186/67
f 102/187/68 101/188/68 98/189/68 97/190/68
f 102/191/69 97/177/69 100/180/69 103/192/69
f 98/178/70 101/181/70 104/184/70 99/179/70
o DFront
v 1.187500 1.500001 -6.256249
v -1.187500 1.500001 -6.256249
v -1.187500 1.812501 -6.256249
v 1.187500 1.812501 -6.256249
vt 0.000000 0.989583
vt 0.063333 0.989583
vt 0.063333 1.000000
vt 0.000000 1.000000
vn 0.0000 0.0000 -1.0000
usemtl Default_OBJ
s off
f 105/193/71 106/194/71 107/195/71 108/196/71
o leftWall
v -1.187500 -0.687499 -6.000000
v -1.250000 -0.687499 -6.000000
v -1.250000 1.562501 -6.000000
v -1.187500 1.562501 -6.000000
v -1.250000 -0.687501 6.250000
v -1.187500 -0.687501 6.250000
v -1.187500 1.562499 6.250000
v -1.250000 1.562499 6.250000
vt 0.326667 0.037500
vt 0.328333 0.037500
vt 0.328333 0.112500
vt 0.326667 0.112500
vt 0.655000 0.037500
vt 0.656667 0.037500
vt 0.656667 0.112500
vt 0.655000 0.112500
vt 0.328333 0.520833
vt 0.326667 0.520833
vt 0.328333 0.112500
vt 0.330000 0.112500
vt 0.330000 0.520833
vt 0.328333 0.520833
vt 0.000000 0.037500
vt 0.000000 0.112500
vn 0.0000 0.0000 -1.0000
vn 0.0000 -0.0000 1.0000
vn 0.0000 1.0000 0.0000
vn 0.0000 -1.0000 -0.0000
vn 1.0000 0.0000 0.0000
vn -1.0000 0.0000 0.0000
usemtl Default_OBJ
s off
f 109/197/72 110/198/72 111/199/72 112/200/72
f 113/201/73 114/202/73 115/203/73 116/204/73
f 112/200/74 111/199/74 116/205/74 115/206/74
f 114/207/75 113/208/75 110/209/75 109/210/75
f 114/211/76 109/197/76 112/200/76 115/212/76
f 110/198/77 113/201/77 116/204/77 111/199/77
